<?xml version="1.0" standalone="no"?>
<!DOCTYPE svg PUBLIC "-//W3C//DTD SVG 20010904//EN"
 "http://www.w3.org/TR/2001/REC-SVG-20010904/DTD/svg10.dtd">
<svg version="1.0" xmlns="http://www.w3.org/2000/svg"
 width="225.000000pt" height="225.000000pt" viewBox="0 0 225.000000 225.000000"
 preserveAspectRatio="xMidYMid meet">

<g transform="translate(0.000000,225.000000) scale(0.100000,-0.100000)"
fill="#000000" stroke="none">
<path d="M0 1125 l0 -1125 1125 0 1125 0 0 1125 0 1125 -1125 0 -1125 0 0
-1125z m397 773 c-3 -8 -6 -5 -6 6 -1 11 2 17 5 13 3 -3 4 -12 1 -19z m1453
-39 c-16 -60 -61 -159 -72 -159 -5 0 -6 -6 -2 -12 4 -7 3 -10 -1 -5 -5 4 -32
-14 -59 -40 l-51 -48 41 45 c64 70 101 129 126 202 25 74 36 84 18 17z m-1377
-129 c16 -25 48 -65 71 -90 l41 -45 -51 48 c-27 26 -53 45 -56 42 -7 -8 -67
125 -73 165 -5 28 -1 23 16 -20 12 -30 35 -75 52 -100z m1444 128 c-3 -8 -6
-5 -6 6 -1 11 2 17 5 13 3 -3 4 -12 1 -19z m10 -210 c-2 -35 -3 -7 -3 62 0 69
1 97 3 63 2 -35 2 -91 0 -125z m-1600 0 c-2 -35 -3 -9 -3 57 0 66 1 94 3 63 2
-32 2 -86 0 -120z m466 -162 c33 -34 73 -79 90 -101 16 -22 -5 -3 -49 43 -43
45 -85 83 -91 83 -27 3 -32 4 -40 13 -5 5 -2 6 7 2 8 -4 7 -1 -4 6 -10 7 -28
21 -40 31 l-21 18 25 -12 24 -12 -19 29 c-18 29 -18 29 21 -5 21 -19 65 -61
97 -95z m782 94 c-18 -20 -18 -21 1 -14 10 3 -8 -12 -41 -34 -33 -23 -86 -69
-119 -104 -56 -61 -68 -64 -16 -4 42 50 174 175 184 176 5 0 1 -9 -9 -20z
m-1238 -42 c-3 -7 -5 -2 -5 12 0 14 2 19 5 13 2 -7 2 -19 0 -25z m1580 0 c-3
-8 -6 -5 -6 6 -1 11 2 17 5 13 3 -3 4 -12 1 -19z m-267 -81 c0 -2 -10 -12 -22
-23 l-23 -19 19 23 c18 21 26 27 26 19z m-485 -104 c8 -24 12 -43 9 -43 -9 0
-34 69 -33 92 0 14 3 17 6 8 2 -8 11 -34 18 -57z m-65 2 c-13 -40 -31 -56 -23
-23 4 22 3 22 -11 -2 -18 -29 -20 -44 -6 -35 18 11 11 -1 -12 -21 -19 -15 -20
-16 -9 -1 7 9 9 17 4 17 -16 0 -44 -36 -36 -45 5 -4 2 -5 -4 -1 -7 4 -13 13
-13 20 0 8 -13 16 -29 19 -32 7 -86 49 -103 81 -7 12 7 4 35 -21 55 -51 78
-53 118 -14 16 16 29 24 29 18 0 -9 2 -9 8 -1 4 6 15 10 24 9 12 -2 19 7 24
28 4 18 9 26 11 20 3 -7 -1 -29 -7 -48z m142 -27 c16 -16 37 -28 47 -28 18 0
89 50 103 73 5 7 8 8 8 1 0 -15 -60 -69 -100 -89 -19 -10 -41 -25 -48 -34 -8
-9 -11 -11 -8 -4 4 6 -6 21 -21 33 -31 24 -71 102 -44 85 5 -3 13 0 17 7 6 9
9 8 12 -2 3 -8 18 -27 34 -42z m-842 -88 c19 -17 20 -20 5 -12 -11 6 -33 25
-50 44 -23 25 -24 28 -5 12 14 -11 36 -31 50 -44z m1495 32 c-6 -4 -26 -21
-45 -37 l-36 -30 38 38 c20 20 41 37 45 37 4 0 3 -3 -2 -8z m-1021 -82 c-3 -2
-24 16 -47 40 l-42 43 47 -39 c25 -21 44 -41 42 -44z m549 35 c-10 -13 -31
-29 -47 -35 -39 -14 -45 -6 -7 10 16 6 37 20 47 31 24 27 28 24 7 -6z m-400
-22 c-7 -2 -19 -2 -25 0 -7 3 -2 5 12 5 14 0 19 -2 13 -5z m234 1 c-3 -3 -12
-4 -19 -1 -8 3 -5 6 6 6 11 1 17 -2 13 -5z m-704 -149 c21 -15 47 -42 59 -59
19 -27 15 -25 -32 15 -29 25 -69 65 -88 90 -25 32 -27 36 -6 13 16 -17 46 -43
67 -59z m317 33 c10 -6 7 -7 -10 -2 -14 3 -32 11 -40 16 -10 6 -7 7 10 2 14
-3 32 -11 40 -16z m510 -9 c-35 -16 -73 -37 -84 -47 -20 -16 -20 -16 -6 2 15
19 125 76 145 76 6 -1 -19 -14 -55 -31z m349 -15 c-19 -20 -52 -50 -74 -67
l-40 -32 23 32 c12 17 41 47 65 65 23 18 44 37 46 41 1 5 6 6 9 2 3 -3 -10
-21 -29 -41z m-759 -41 l25 -28 -35 30 c-55 47 -56 48 -35 37 11 -6 31 -23 45
-39z m-267 6 c12 -6 32 -20 44 -31 12 -11 26 -17 31 -14 11 7 45 -28 36 -37
-4 -4 1 -9 10 -13 9 -3 16 -11 16 -16 0 -6 -7 -5 -15 2 -9 7 -18 10 -21 7 -4
-3 -29 12 -56 34 -27 21 -55 39 -61 39 -5 0 -8 2 -5 5 3 3 17 1 32 -4 38 -15
32 -5 -11 18 -21 11 -34 20 -30 21 5 0 18 -5 30 -11z m854 -5 c-16 -9 -27 -18
-24 -21 3 -2 14 0 25 6 12 6 24 11 29 11 4 -1 -5 -8 -22 -17 -16 -9 -52 -34
-80 -57 -27 -23 -46 -35 -41 -28 4 6 3 12 -1 12 -5 0 -15 -6 -23 -12 -12 -11
-12 -10 -1 5 7 9 10 17 5 17 -4 0 3 11 16 25 25 26 46 34 34 13 -4 -7 6 -1 22
13 32 29 64 48 79 48 6 0 -3 -7 -18 -15z m-498 -89 c0 -5 -6 1 -14 15 -8 14
-14 30 -14 35 0 6 6 -1 14 -15 8 -14 14 -29 14 -35z m169 -10 c-18 -35 -34
-63 -36 -61 -4 5 56 126 63 126 3 0 -10 -29 -27 -65z m-190 -10 c-3 -3 -9 2
-12 12 -6 14 -5 15 5 6 7 -7 10 -15 7 -18z m224 -28 c-6 -6 -22 -32 -36 -57
-14 -25 -26 -40 -26 -34 0 13 57 104 66 104 4 0 2 -6 -4 -13z m-163 -148 c13
-76 14 -126 4 -132 -5 -3 -8 25 -9 61 0 37 -8 93 -18 124 -9 32 -19 65 -21 75
-3 10 3 0 13 -22 11 -22 24 -70 31 -106z m-59 81 c6 -11 8 -20 6 -20 -3 0 -10
9 -16 20 -6 11 -8 20 -6 20 3 0 10 -9 16 -20z m125 -71 l-15 -64 5 53 c6 52
14 86 21 79 2 -2 -3 -32 -11 -68z m103 -16 c-37 -51 -78 -141 -78 -169 0 -10
-3 -15 -6 -11 -3 3 1 37 10 76 15 67 48 120 70 113 5 -2 6 4 2 13 -3 9 -2 13
3 10 5 -3 12 -1 16 5 3 5 9 10 11 10 3 0 -10 -21 -28 -47z m-253 -14 c4 -11
10 -17 15 -14 5 3 12 -4 15 -17 31 -138 32 -167 4 -84 -11 32 -36 83 -55 113
-31 49 -32 52 -9 37 13 -9 27 -24 30 -35z m72 -61 c-3 -8 -6 -5 -6 6 -1 11 2
17 5 13 3 -3 4 -12 1 -19z m65 -14 c2 -19 0 -37 -4 -40 -4 -3 -8 13 -8 35 0
51 6 53 12 5z m15 14 c-3 -8 -6 -5 -6 6 -1 11 2 17 5 13 3 -3 4 -12 1 -19z
m-60 -115 c-3 -10 -5 -4 -5 12 0 17 2 24 5 18 2 -7 2 -21 0 -30z m40 -5 c-3
-8 -6 -5 -6 6 -1 11 2 17 5 13 3 -3 4 -12 1 -19z"/>
<path d="M780 976 c0 -2 8 -10 18 -17 15 -13 16 -12 3 4 -13 16 -21 21 -21 13z"/>
<path d="M1439 953 c-13 -16 -12 -17 4 -4 16 13 21 21 13 21 -2 0 -10 -8 -17
-17z"/>
</g>
</svg>
