<?xml version="1.0" standalone="no"?>
<!DOCTYPE svg PUBLIC "-//W3C//DTD SVG 20010904//EN"
 "http://www.w3.org/TR/2001/REC-SVG-20010904/DTD/svg10.dtd">
<svg version="1.0" xmlns="http://www.w3.org/2000/svg"
 width="1024.000000pt" height="1024.000000pt" viewBox="0 0 1024.000000 1024.000000"
 preserveAspectRatio="xMidYMid meet">

<g transform="translate(0.000000,1024.000000) scale(0.100000,-0.100000)"
fill="#000000" stroke="none">
<path d="M2581 8686 c-7 -8 -17 -45 -22 -83 -5 -37 -14 -95 -19 -128 -5 -33
-19 -157 -30 -275 -11 -118 -27 -256 -36 -306 -17 -92 -17 -92 6 -139 27 -56
78 -84 151 -85 57 0 69 -12 69 -72 0 -49 31 -142 55 -167 8 -8 44 -19 82 -25
l68 -11 7 -70 c13 -148 39 -186 138 -203 35 -7 67 -15 71 -19 4 -5 11 -42 14
-83 7 -77 33 -142 64 -156 9 -4 48 -10 86 -13 l70 -6 6 -62 c7 -74 19 -90 68
-98 121 -20 182 -38 192 -56 5 -11 8 -23 5 -27 -2 -4 -158 -6 -345 -4 -332 3
-340 3 -360 -17 -20 -20 -21 -33 -21 -184 0 -212 12 -199 -187 -195 l-149 3
-53 -43 -54 -42 -43 40 c-28 26 -53 40 -71 40 -522 7 -578 10 -588 26 -19 32
-140 180 -210 257 -112 124 -83 118 -540 111 -309 -5 -395 -9 -413 -20 -22
-14 -22 -17 -21 -227 1 -122 4 -201 9 -187 8 24 8 24 9 -7 1 -17 6 -35 11 -38
15 -9 12 -25 -5 -25 -8 0 -15 6 -16 13 -2 32 -18 -34 -18 -77 -1 -46 0 -48 17
-34 15 13 112 32 112 22 0 -2 -15 -10 -34 -18 -28 -12 -37 -23 -46 -55 -10
-38 -12 -40 -37 -30 l-26 10 5 -92 c3 -53 2 -86 -3 -78 -6 9 -9 -6 -9 -41 0
-41 3 -51 11 -40 7 11 9 6 7 -23 -2 -25 2 -41 12 -47 14 -9 7 -14 -12 -11 -5
0 -9 -9 -9 -22 -1 -18 -3 -16 -9 8 l-8 30 -1 -31 c0 -16 5 -36 11 -42 9 -9 9
-15 2 -20 -5 -4 -11 -16 -12 -27 -1 -11 -6 -51 -11 -90 -6 -38 -10 -98 -10
-132 l-1 -62 33 6 c17 3 34 6 37 5 3 0 27 0 54 -1 56 -1 58 -8 4 -14 -42 -4
-88 -31 -88 -52 0 -8 -6 -12 -14 -9 -11 4 -16 -4 -19 -28 l-4 -33 -3 35 c-2
19 -10 -73 -20 -205 -9 -132 -13 -244 -10 -248 4 -5 3 -26 -2 -48 l-10 -39
172 -177 c204 -210 320 -310 370 -320 19 -4 407 -7 861 -8 l827 0 4 -146 c4
-159 14 -190 71 -233 25 -18 40 -21 113 -18 l85 2 20 -44 c11 -25 23 -65 28
-91 8 -43 26 -73 60 -102 9 -8 46 -13 96 -13 93 0 110 -9 119 -62 8 -42 7 -42
-133 -54 -104 -8 -121 -21 -121 -96 0 -29 4 -70 9 -90 6 -26 5 -40 -3 -46 -6
-5 -52 -14 -103 -20 -139 -16 -136 -13 -128 -136 9 -133 5 -146 -46 -146 -68
0 -432 -50 -446 -62 -16 -13 -17 -89 -3 -283 5 -77 14 -218 20 -313 8 -148 12
-177 29 -201 40 -55 130 -73 266 -51 68 10 463 59 540 66 75 7 92 12 99 29 3
8 -3 81 -13 162 -29 224 -35 319 -22 328 6 3 57 13 113 21 133 18 142 27 134
116 -3 37 -11 79 -16 94 -16 41 0 50 102 58 117 9 128 15 128 70 0 23 5 68 11
99 11 54 14 57 54 72 23 9 55 15 71 13 27 -3 29 -6 40 -82 8 -46 21 -90 32
-105 17 -23 27 -26 96 -29 42 -2 92 2 112 7 31 9 36 7 43 -12 4 -12 11 -50 14
-84 8 -80 29 -130 60 -144 19 -9 80 -5 263 15 132 14 253 30 269 34 29 8 30
10 29 68 -1 93 -63 556 -77 572 -9 11 -28 13 -87 8 -41 -3 -92 -11 -114 -17
-50 -14 -56 -5 -56 88 0 40 -5 106 -11 148 -15 97 -10 102 100 116 47 5 93 15
104 20 21 12 21 34 -3 178 -6 40 -9 79 -6 87 4 11 29 14 106 14 144 0 144 0
136 116 l-6 94 295 2 c162 1 307 2 323 2 l27 1 -4 -89 c-4 -100 -1 -106 65
-106 59 0 154 -21 155 -34 1 -6 2 -65 3 -131 l1 -120 27 -13 c15 -7 57 -15 93
-19 100 -9 99 -6 81 -153 -9 -69 -17 -141 -18 -160 l-3 -35 -116 4 c-136 4
-122 17 -139 -129 -16 -136 -38 -280 -62 -397 -16 -78 -18 -106 -9 -117 7 -8
45 -16 104 -20 50 -4 148 -14 217 -22 161 -18 230 -18 257 1 28 20 44 71 52
164 l6 76 101 -4 c151 -5 170 9 192 149 l7 45 51 3 c81 5 97 -14 103 -127 4
-65 10 -94 21 -101 7 -5 48 -12 90 -15 117 -10 109 -1 107 -120 -2 -81 1 -108
13 -119 15 -15 151 -46 203 -46 15 0 30 -7 33 -15 4 -8 -3 -96 -15 -195 -32
-276 -31 -285 55 -301 94 -18 655 -89 700 -89 61 0 119 31 133 71 23 67 68
747 52 778 -7 11 -25 22 -44 25 -192 30 -416 68 -430 72 -16 5 -17 16 -11 114
7 105 6 108 -16 120 -13 7 -72 17 -132 23 l-110 10 9 46 c4 25 8 72 7 103 -1
83 -12 92 -141 107 -59 7 -111 17 -114 23 -7 12 9 76 25 97 8 11 30 12 99 7
72 -6 93 -4 116 10 39 23 61 64 67 126 10 106 1 98 112 92 92 -5 98 -4 127 19
29 24 29 26 40 177 10 136 14 155 32 170 18 14 56 18 240 23 120 4 265 7 324
7 l105 0 64 45 c35 25 72 45 83 45 10 0 41 -20 67 -43 l49 -44 268 -5 c147 -3
311 -3 364 1 111 7 103 2 306 190 62 58 152 141 200 183 129 115 123 97 107
328 -15 234 -32 411 -39 418 -3 3 -13 -1 -22 -10 -26 -21 -179 -13 -188 10 -3
9 -1 18 5 20 7 3 5 11 -5 22 -10 11 -15 23 -14 28 2 5 52 53 112 107 59 53
110 107 113 120 6 25 -32 591 -43 633 -6 24 -6 24 -26 -8 -18 -29 -22 -31 -33
-16 -9 13 -22 15 -67 10 -100 -12 -151 10 -113 49 11 10 12 24 5 58 -4 24 -8
76 -9 114 0 39 -3 107 -7 152 l-6 82 -22 -21 c-19 -18 -35 -21 -161 -23 -76
-2 -154 -4 -173 -4 -29 -1 -33 -4 -28 -23 6 -23 6 -23 -9 -3 -14 19 -15 18
-12 -15 2 -19 -1 -37 -7 -40 -6 -3 -11 23 -13 68 l-3 72 148 1 148 2 -120 8
c-258 18 -473 29 -542 29 -70 0 -75 -1 -114 -37 -35 -32 -174 -198 -279 -334
l-26 -33 -323 -12 c-339 -13 -322 -11 -387 -59 -9 -7 -19 -7 -28 0 -7 6 -33
24 -57 40 l-44 30 -470 5 -470 5 0 25 c0 27 11 30 155 48 50 6 57 10 73 42 15
29 17 49 12 116 -8 99 -1 108 86 118 35 4 71 12 81 17 32 17 58 95 58 175 0
82 9 94 72 94 18 0 50 5 71 11 33 9 42 18 60 57 12 27 23 79 26 122 l6 74 70
12 c39 6 77 14 86 18 29 13 52 78 57 164 2 45 9 85 14 88 5 3 38 10 73 15 109
15 123 34 134 184 l6 90 79 11 c69 9 83 15 107 42 48 53 53 97 30 231 -11 64
-32 215 -46 336 -32 264 -50 364 -70 384 -13 14 -24 13 -97 -3 -46 -9 -137
-28 -203 -42 -66 -13 -174 -37 -240 -53 -66 -16 -142 -32 -170 -36 -83 -11
-112 -28 -124 -72 -26 -100 -33 -160 -22 -182 13 -24 11 -26 -52 -35 -56 -7
-125 -44 -133 -69 -4 -12 -14 -60 -23 -107 l-16 -84 -83 -17 c-46 -9 -88 -21
-93 -26 -13 -13 -36 -101 -45 -169 -3 -29 -11 -58 -18 -63 -6 -5 -44 -15 -85
-22 -40 -7 -79 -18 -86 -26 -12 -12 -24 -84 -29 -178 -1 -22 -5 -45 -9 -52 -4
-6 -40 -17 -80 -23 -103 -17 -112 -24 -126 -112 -6 -40 -12 -93 -14 -118 l-2
-44 -95 -14 c-52 -7 -98 -17 -103 -21 -4 -4 -10 -59 -14 -122 -3 -63 -11 -117
-17 -121 -5 -4 -43 -10 -83 -14 -110 -10 -118 -19 -120 -141 l-2 -98 -33 -5
c-18 -3 -149 -4 -290 -2 -272 5 -288 3 -288 -40 0 -15 -4 -18 -17 -13 -33 14
-108 26 -149 23 -22 -1 -46 2 -52 6 -8 5 -12 38 -12 94 0 48 -5 104 -10 124
-10 33 -15 37 -61 47 -27 6 -64 11 -80 11 -58 0 -69 14 -69 88 -1 77 -13 149
-28 164 -5 5 -50 16 -98 23 -49 8 -90 14 -91 15 -2 0 -3 21 -3 48 -1 60 -24
180 -37 193 -6 6 -48 19 -93 29 -45 10 -85 21 -88 25 -4 4 -12 54 -19 112 -6
58 -16 111 -23 117 -6 6 -48 18 -93 26 l-82 15 -7 50 c-18 112 -40 185 -60
196 -11 6 -52 16 -91 23 l-72 12 -6 57 c-9 85 -29 144 -57 172 -23 24 -77 45
-115 45 -21 0 -29 20 -51 121 -27 120 -45 136 -186 164 -47 9 -143 30 -215 46
-71 16 -155 34 -185 40 -30 7 -89 20 -132 30 -91 23 -131 24 -147 5z m350 -85
c173 -38 343 -75 379 -83 36 -8 64 -18 63 -24 -15 -90 -32 -228 -29 -231 2 -2
59 -13 127 -25 68 -11 125 -21 126 -22 2 -1 -6 -56 -17 -121 -11 -65 -19 -119
-18 -121 2 -1 59 -11 128 -21 112 -17 125 -21 124 -39 -1 -10 -9 -64 -17 -119
-9 -54 -15 -101 -13 -102 1 -2 55 -11 119 -20 64 -9 121 -19 127 -23 9 -6 8
-35 -4 -116 -20 -140 -21 -134 12 -134 30 0 223 -27 227 -32 2 -2 -6 -52 -16
-113 -10 -60 -19 -115 -19 -121 0 -7 51 -18 127 -28 70 -10 129 -18 130 -20 1
-1 -6 -55 -16 -120 -12 -81 -14 -119 -7 -122 6 -2 65 -12 131 -22 89 -14 119
-22 117 -32 -10 -43 -24 -120 -27 -148 -2 -19 -6 -37 -10 -40 -4 -4 -5 33 -1
81 5 66 3 89 -6 92 -28 10 -203 32 -209 26 -9 -9 -32 -191 -25 -198 3 -4 66
-14 138 -24 73 -10 185 -26 248 -34 63 -9 116 -18 118 -20 2 -2 -3 -13 -11
-25 -8 -12 -16 -17 -18 -11 -2 6 -50 17 -106 25 -56 8 -106 17 -111 20 -9 5
-43 -203 -36 -215 2 -4 50 -12 106 -18 151 -17 150 -17 146 -49 -3 -24 -7 -27
-48 -30 -25 -2 -126 -1 -226 3 l-180 7 -11 27 c-6 14 -19 60 -28 101 -21 93
-55 209 -69 233 -18 29 -73 37 -268 37 -102 0 -188 4 -190 9 -1 5 -46 14 -98
20 -52 6 -108 14 -124 17 l-28 6 7 62 c23 194 23 184 -5 189 -14 3 -71 11
-127 18 -118 14 -112 4 -88 134 26 142 35 130 -111 145 -69 8 -127 16 -129 20
-2 4 2 42 10 86 8 43 14 98 15 120 0 48 12 43 -157 65 -51 6 -93 15 -93 18 0
3 9 58 19 121 10 63 17 118 15 121 -2 3 -56 12 -121 19 -65 7 -121 16 -125 19
-4 3 6 98 22 211 16 113 32 235 36 271 l6 66 -54 74 c-30 41 -67 95 -84 121
-16 26 -31 47 -34 48 -3 0 -11 -47 -18 -105 -7 -58 -24 -171 -37 -251 -14 -80
-25 -148 -25 -150 0 -3 -4 -3 -9 1 -5 3 -12 -5 -15 -17 -10 -44 3 99 28 317
28 241 32 265 45 265 4 0 149 -31 322 -69z m4873 2 c3 -38 15 -144 26 -238 12
-100 17 -189 14 -215 -9 -58 -9 -57 -39 150 -51 344 -48 331 -69 296 -47 -78
-51 -81 -90 -79 -22 2 -42 5 -45 8 -10 10 23 25 56 25 30 0 63 21 63 41 0 12
-17 12 -25 -1 -3 -5 -25 -10 -48 -10 -48 0 -114 -16 -122 -30 -3 -5 7 -13 22
-16 36 -9 55 -28 47 -49 -4 -9 1 -24 11 -36 18 -19 18 -20 -2 -39 -12 -10 -23
-17 -26 -14 -2 2 -10 -2 -17 -11 -10 -12 -10 -15 3 -15 11 0 17 -15 22 -52 3
-29 20 -149 36 -266 17 -117 29 -218 27 -224 -3 -7 -57 -19 -121 -29 -65 -9
-120 -19 -124 -22 -3 -3 2 -59 11 -123 9 -65 15 -119 13 -120 -1 -1 -57 -10
-125 -20 -142 -20 -131 -4 -107 -164 8 -52 12 -96 9 -99 -6 -6 -11 -7 -147
-23 l-107 -12 5 -31 c2 -16 12 -72 20 -124 9 -52 14 -95 12 -97 -1 -2 -60 -11
-130 -20 -103 -14 -127 -20 -127 -33 0 -9 7 -63 15 -121 7 -58 11 -108 7 -111
-4 -4 -58 -14 -121 -22 -63 -9 -116 -19 -119 -22 -3 -3 0 -58 7 -121 7 -64 9
-120 4 -124 -4 -4 -55 -13 -113 -19 -149 -17 -139 -10 -132 -86 l5 -65 -122 0
c-66 0 -121 3 -122 8 0 4 -2 27 -4 52 -2 25 -6 98 -10 164 -8 153 -13 176 -36
176 -24 0 -34 27 -44 114 l-7 68 -36 -6 c-21 -3 -64 -9 -97 -12 -63 -7 -99
-20 -91 -33 3 -4 7 -31 10 -59 3 -39 1 -52 -9 -52 -16 0 -25 22 -25 63 0 18
-4 47 -9 64 -9 31 -8 33 22 38 18 2 59 9 91 15 33 5 73 10 90 10 54 0 57 7 42
95 -8 44 -16 98 -20 121 l-6 41 98 12 c136 17 168 25 163 42 -1 8 -10 55 -17
104 -8 50 -17 97 -19 106 -4 12 14 18 102 32 60 10 121 17 136 17 22 0 27 4
23 18 -12 42 -38 223 -32 229 3 3 60 14 127 24 66 10 122 19 124 21 2 2 -5 55
-15 118 -13 75 -16 116 -9 120 5 4 64 15 130 24 l121 18 -6 37 c-16 96 -29
202 -25 205 2 2 51 11 109 21 58 9 114 18 126 20 l21 5 -20 120 c-11 66 -18
122 -16 124 3 3 746 162 770 165 3 1 9 -29 13 -66z m-214 -53 c-8 -5 -24 -9
-35 -9 l-20 0 20 9 c11 5 27 9 35 9 13 1 13 0 0 -9z m50 -96 c0 -21 -17 -17
-23 5 -3 14 -1 18 9 14 8 -3 14 -11 14 -19z m-6662 -1896 c20 -26 39 -84 32
-102 -6 -17 -11 -14 -46 21 l-40 41 -115 -4 c-63 -2 -124 -4 -135 -4 -17 0
-23 -8 -28 -37 -6 -34 -23 -240 -25 -300 -1 -27 -19 -31 -22 -5 -4 33 1 298 6
350 l6 52 178 0 c131 0 181 -3 189 -12z m505 -78 c70 -81 76 -91 65 -110 -13
-20 -48 -28 -48 -10 0 5 -24 35 -52 66 -29 31 -57 62 -61 70 -6 11 -36 14
-130 14 -67 0 -146 3 -174 6 -47 6 -53 9 -53 30 l0 24 188 0 187 -1 78 -89z
m2298 69 c7 -14 8 -45 4 -88 l-7 -68 -56 1 c-33 1 -63 -4 -70 -11 -16 -15 -32
-17 -32 -4 0 5 -7 16 -15 25 -9 9 -11 17 -5 21 5 3 10 1 10 -5 0 -6 5 -8 13
-3 6 4 20 6 30 5 9 -2 17 2 17 7 0 6 -11 11 -25 11 -26 0 -30 7 -17 26 4 7 23
9 52 5 36 -5 45 -10 50 -31 10 -44 17 1 8 48 -8 35 -13 42 -26 37 -9 -3 -38
-9 -64 -12 -27 -3 -53 -12 -59 -19 -6 -8 -17 -14 -24 -14 -7 0 -15 -7 -19 -15
-7 -19 -26 -20 -26 -1 0 7 -7 19 -15 26 -13 11 -15 8 -15 -14 0 -28 -14 -35
-24 -11 -3 8 -16 15 -30 15 -19 0 -23 4 -19 20 5 19 0 20 -68 20 l-74 -1 24
-20 c13 -11 21 -22 18 -25 -10 -10 -47 7 -47 21 0 7 -8 16 -17 20 -27 10 -262
-6 -270 -18 -4 -6 -8 -63 -10 -127 -2 -93 -5 -116 -18 -118 -15 -3 -19 7 -15
42 1 11 -3 15 -9 12 -8 -5 -11 13 -10 56 1 47 3 57 9 38 5 -14 6 17 3 73 l-6
97 421 0 c418 0 421 0 433 -21z m515 -16 c13 -32 14 -50 5 -118 -6 -44 -11
-102 -11 -128 0 -28 -4 -46 -10 -42 -5 3 -8 49 -8 103 1 113 -10 147 -48 139
-18 -3 -24 -1 -20 9 3 8 0 11 -10 7 -9 -3 -15 -16 -14 -32 3 -41 1 -43 -22
-21 -12 11 -29 18 -37 15 -9 -3 -22 3 -31 13 -18 24 -150 42 -150 21 0 -6 -11
-22 -24 -34 -22 -20 -23 -25 -11 -41 9 -12 14 -14 15 -6 0 15 20 6 20 -9 0
-14 -47 -11 -53 5 -3 9 -15 12 -31 9 -21 -4 -26 -1 -26 14 0 11 9 31 21 44
l21 24 -24 3 c-32 5 -41 16 -33 41 6 21 11 21 236 21 l229 0 16 -37z m1656
-75 c-2 -62 -3 -128 -3 -146 1 -33 -27 -72 -51 -72 -10 0 -9 3 1 9 10 6 13 30
11 87 -1 44 -3 100 -4 127 0 33 -5 46 -13 43 -7 -3 -26 0 -43 5 -37 13 -102 0
-107 -21 -3 -10 -2 -11 4 -4 10 14 75 24 103 17 20 -5 20 -7 4 -24 -9 -11 -25
-19 -36 -19 -13 0 -18 -7 -18 -25 0 -20 -5 -25 -26 -25 -23 0 -26 3 -22 28 3
25 1 28 -24 30 -32 3 -38 -17 -12 -42 8 -9 12 -20 9 -26 -3 -5 0 -10 7 -11 7
0 0 -5 -17 -10 -16 -5 -122 -9 -235 -8 -203 2 -205 2 -227 26 -26 28 -30 45
-8 37 8 -4 15 -1 15 5 0 6 7 11 15 11 23 0 18 16 -5 17 -11 1 -20 -2 -20 -6 0
-4 -18 -15 -40 -24 -22 -8 -40 -11 -40 -6 0 5 7 9 15 9 8 0 15 2 15 4 0 12
-63 65 -71 60 -5 -3 -9 -30 -9 -60 0 -41 -4 -54 -15 -54 -8 0 -15 -6 -15 -14
0 -8 7 -16 15 -20 23 -9 20 -92 -4 -105 -10 -6 -21 -7 -25 -4 -3 3 -6 78 -6
165 l0 158 443 0 442 0 -3 -112z m3137 90 c12 -33 6 -37 -53 -37 -29 1 -64 -4
-76 -11 -15 -8 -20 -8 -16 -1 5 8 -25 11 -101 11 -61 0 -102 -4 -95 -9 7 -4
12 -14 10 -21 -2 -7 8 -17 22 -21 22 -6 20 -7 -13 -8 -35 -1 -38 1 -32 22 6
19 3 18 -19 -8 -14 -16 -25 -26 -26 -21 0 8 -34 -26 -66 -66 -13 -17 -7 -38
12 -38 8 0 14 -4 14 -10 0 -5 -4 -10 -10 -10 -5 0 -10 -23 -10 -51 0 -47 -2
-50 -22 -47 -21 3 -23 8 -23 65 0 43 -5 68 -16 82 -16 18 -13 23 57 102 40 46
74 87 74 92 0 4 86 7 190 7 189 0 191 0 199 -22z m-5849 -57 c0 11 2 11 10 -1
5 -8 10 -21 10 -29 0 -11 -3 -11 -16 0 -13 11 -14 9 -8 -16 6 -24 4 -27 -10
-22 -10 4 -15 3 -11 -3 3 -6 2 -10 -3 -10 -14 0 -22 27 -15 47 4 10 2 14 -4
10 -12 -7 -73 14 -73 25 0 11 28 10 50 -2 14 -7 20 -6 24 7 6 14 8 14 26 -2
15 -14 20 -15 20 -4z m1761 12 c0 -5 1 -53 2 -107 2 -107 -4 -120 -43 -88 -23
18 -23 21 -13 96 10 72 24 106 44 106 5 0 9 -3 10 -7z m-1946 -12 c3 -5 1 -12
-5 -16 -5 -3 -10 1 -10 9 0 18 6 21 15 7z m55 -21 c0 -13 6 -16 25 -12 27 5
33 -10 15 -38 -8 -12 -13 -13 -30 -2 -11 6 -32 12 -46 12 -24 0 -26 -3 -20
-30 7 -38 -14 -41 -31 -5 -10 23 -8 29 25 64 38 39 62 43 62 11z m5934 -31
c-33 -34 -34 -37 -15 -42 13 -3 19 -1 15 5 -4 6 -1 14 6 18 19 12 48 0 54 -23
7 -28 0 -33 -20 -16 -13 11 -18 11 -21 2 -3 -7 -16 -13 -29 -13 -14 0 -23 4
-20 9 4 5 -5 13 -20 18 l-25 8 20 27 c12 14 21 30 21 35 0 15 44 29 57 18 8
-7 2 -20 -23 -46z m-7894 41 c0 -5 -4 -10 -9 -10 -6 0 -13 5 -16 10 -3 6 1 10
9 10 9 0 16 -4 16 -10z m-380 -17 c0 -21 -19 -24 -30 -4 -8 17 -7 20 10 18 11
-1 20 -7 20 -14z m8747 -25 c-3 -8 -6 -5 -6 6 -1 11 2 17 5 13 3 -3 4 -12 1
-19z m-602 -54 c-10 -7 -23 -10 -29 -7 -6 4 0 10 14 14 24 7 10 13 -20 9 -11
-1 -9 3 4 13 17 13 22 13 35 0 13 -14 13 -17 -4 -29z m-4845 26 c0 -12 -8 -12
-35 0 -18 8 -17 9 8 9 15 1 27 -3 27 -9z m5117 -10 c-1 -14 -8 -20 -24 -20
-22 0 -22 1 -5 19 22 25 31 26 29 1z m-5600 -6 c-3 -3 -12 -4 -19 -1 -8 3 -5
6 6 6 11 1 17 -2 13 -5z m5178 -34 c3 -5 1 -10 -4 -10 -6 0 -11 5 -11 10 0 6
2 10 4 10 3 0 8 -4 11 -10z m-3855 -25 c0 -8 -4 -15 -10 -15 -5 0 -10 7 -10
15 0 8 5 15 10 15 6 0 10 -7 10 -15z m-3385 -103 c-5 -14 -7 -14 -15 -2 -14
22 -12 84 3 99 10 10 13 3 15 -35 2 -25 0 -54 -3 -62z m7165 98 c0 -5 -7 -10
-16 -10 -8 0 -12 5 -9 10 3 6 10 10 16 10 5 0 9 -4 9 -10z m-2992 -16 c9 -2
12 -67 12 -279 l0 -275 48 0 47 0 -3 64 -4 65 34 6 c18 3 112 5 208 3 l175 -3
3 -72 3 -73 79 0 80 0 2 -387 c1 -214 2 -453 2 -533 l1 -145 -84 -3 -84 -3 6
29 c3 16 -2 54 -13 88 l-18 59 -1 -62 c-1 -34 -5 -73 -11 -88 -10 -25 -11 -26
-93 -23 l-84 3 -7 164 c-3 90 -6 285 -6 433 l0 268 -117 0 c-65 0 -127 3 -138
6 -21 5 -21 3 -18 -429 l3 -435 -31 -6 c-44 -9 -112 -7 -127 3 -7 4 -16 34
-19 67 -8 83 -20 99 -27 39 -4 -28 -10 -63 -14 -80 l-8 -29 -83 -1 c-45 0 -84
2 -86 5 -1 3 -4 370 -6 815 l-4 810 75 6 c74 5 283 1 308 -7z m3563 0 l56 -6
7 -126 c3 -70 9 -164 13 -209 l6 -83 107 0 108 0 5 -42 c4 -24 9 -92 13 -151
l6 -108 -106 2 c-58 1 -109 -1 -113 -4 -5 -6 2 -157 23 -499 l7 -98 113 0 114
0 2 -105 c1 -58 2 -126 3 -152 l0 -48 -232 -1 -232 0 -3 75 -3 76 -72 -2 -72
-1 -5 51 c-11 102 -27 415 -29 569 -1 99 -6 153 -11 147 -15 -14 -152 -11
-163 4 -6 6 -11 41 -12 77 -1 36 -4 84 -7 108 -6 38 -9 42 -28 36 -18 -6 -19
-5 -7 9 7 9 17 14 22 11 5 -3 9 6 9 20 0 24 4 26 48 27 106 3 117 4 117 14 -1
31 -16 217 -21 259 -4 33 -9 44 -15 35 -7 -11 -9 -9 -9 8 0 12 -6 23 -12 25
-18 6 32 76 57 81 36 6 259 7 316 1z m-8045 -111 c-4 -60 -9 -127 -13 -151 -5
-40 -7 -42 -22 -27 -14 12 -46 15 -163 15 -147 0 -183 -4 -172 -21 3 -5 0 -9
-5 -9 -12 0 -15 140 -5 239 l7 61 190 0 189 0 -6 -107z m2339 95 c2 -7 0 -67
-4 -133 -5 -78 -11 -112 -16 -97 -5 17 -11 20 -20 12 -18 -15 -104 15 -132 46
-22 24 -23 24 -23 5 0 -12 7 -21 15 -21 8 0 15 -6 15 -13 0 -8 17 -19 39 -25
21 -7 57 -29 79 -50 40 -36 41 -38 35 -89 -3 -29 -9 -50 -13 -48 -4 3 -11 -75
-14 -173 -18 -491 -27 -647 -39 -661 -10 -12 -67 -41 -81 -41 -2 0 -6 7 -9 14
-4 10 -1 13 9 9 7 -3 14 0 14 7 0 7 6 10 14 7 7 -3 19 0 25 6 14 14 15 127 1
127 -5 0 -10 -3 -10 -7 0 -12 -113 -8 -136 4 -17 10 -24 8 -37 -8 -9 -10 -25
-19 -36 -19 -15 0 -22 -11 -30 -50 -6 -28 -11 -68 -11 -90 0 -73 8 -70 -191
-70 -98 0 -179 3 -179 7 0 3 7 15 17 25 14 16 33 18 164 18 97 0 150 -4 155
-11 16 -26 19 19 15 208 -3 122 -7 181 -11 153 -6 -36 -7 -27 -8 47 -1 50 2
93 8 95 5 2 12 33 16 71 l7 67 -162 0 -161 0 0 -127 c0 -71 -7 -191 -15 -268
-8 -77 -15 -164 -15 -192 0 -32 -4 -53 -11 -53 -7 0 -10 22 -8 63 2 34 2 88 1
120 l-2 57 -39 0 c-30 0 -44 -6 -59 -24 -18 -23 -20 -24 -37 -8 -13 13 -19 14
-22 5 -3 -7 -16 -13 -29 -13 -13 0 -24 -4 -24 -10 0 -5 -9 -10 -20 -10 -11 0
-23 -6 -25 -12 -9 -25 -21 -178 -17 -211 l4 -34 65 -6 c35 -2 67 -7 70 -11 3
-3 6 -32 7 -65 0 -33 3 -62 6 -65 3 -3 79 -6 168 -7 89 -1 162 -5 162 -10 0
-11 -11 -12 -185 -10 -77 0 -148 1 -159 1 -17 0 -18 6 -11 77 l7 76 -75 -6
c-53 -4 -77 -2 -79 6 -2 7 -2 83 0 170 5 179 -1 168 97 180 33 5 45 4 35 -3
-8 -5 -12 -11 -9 -15 3 -3 14 4 24 15 18 19 17 20 -3 20 -11 0 -28 3 -37 6
-24 10 1 24 41 24 17 0 37 7 44 15 11 13 7 15 -24 15 -20 0 -53 -7 -72 -15
-20 -8 -40 -12 -45 -9 -5 3 -12 -2 -15 -10 -11 -28 -24 -17 -30 24 -4 22 -10
43 -14 45 -8 5 -3 367 5 393 3 8 27 12 75 12 l70 0 0 70 0 70 211 0 210 0 -6
-53 -7 -52 45 3 44 4 6 156 c4 87 7 203 7 260 l0 102 190 0 c144 0 192 -3 195
-12z m509 -110 c-5 -77 -12 -127 -20 -135 -9 -10 -58 -13 -178 -13 -148 0
-165 -2 -169 -17 -3 -10 -5 51 -6 135 l-1 152 190 0 191 0 -7 -122z m5476 85
c0 -22 -2 -25 -10 -13 -13 20 -13 40 0 40 6 0 10 -12 10 -27z m-3667 -4 c4
-16 3 -18 -9 -8 -16 13 -19 29 -5 29 5 0 11 -9 14 -21z m-4353 -74 c0 -8 -2
-15 -4 -15 -2 0 -6 7 -10 15 -3 8 -1 15 4 15 6 0 10 -7 10 -15z m4410 -10 c10
-12 9 -15 -7 -15 -10 0 -28 7 -39 15 -18 14 -18 14 7 15 15 0 32 -7 39 -15z
m2690 2 c-8 -7 -20 -24 -27 -38 -8 -19 -23 -29 -57 -38 -60 -15 -63 -14 -71
12 -6 19 -8 19 -12 5 -5 -22 29 -20 -363 -18 l-325 1 -68 -68 c-59 -58 -71
-65 -80 -52 -7 9 -17 14 -23 12 -6 -2 -24 9 -40 24 -16 16 -44 40 -62 56 l-34
27 -174 0 c-190 0 -268 -12 -261 -41 3 -12 -1 -15 -14 -12 -24 7 -24 22 -1 39
16 12 15 13 -8 14 -63 0 -93 -29 -71 -67 8 -14 10 -15 11 -3 0 12 2 12 8 2 7
-9 15 -10 35 -3 18 7 27 7 30 -2 2 -8 14 -8 45 2 36 12 47 12 79 -1 21 -8 61
-16 88 -17 28 -1 63 -9 79 -17 20 -10 33 -11 40 -4 16 16 30 11 43 -15 l11
-25 -111 -1 c-345 -4 -609 1 -630 13 -21 13 -21 13 11 16 23 2 32 8 29 17 -8
18 72 37 122 29 31 -5 43 -2 60 15 25 25 27 33 6 25 -9 -4 -15 0 -15 9 0 8 6
18 13 20 6 3 -62 6 -153 6 l-166 1 -42 -43 c-23 -24 -39 -46 -36 -50 4 -4 0
-7 -9 -7 -10 0 -17 -4 -17 -9 0 -5 -9 -11 -19 -14 -22 -5 -56 24 -44 38 5 4 3
5 -3 2 -13 -7 -82 40 -102 69 -12 17 -27 19 -176 18 l-164 0 11 23 c10 23 12
23 174 23 l164 0 56 -55 c31 -30 62 -55 69 -55 7 0 36 25 65 55 l52 55 472 0
471 0 59 -60 c33 -33 63 -60 66 -60 4 0 33 27 65 60 l57 60 411 0 c386 1 413
2 446 20 40 22 52 25 30 7z m-5690 -43 c0 -26 -40 -34 -175 -34 -152 0 -166
-4 -235 -73 -25 -24 -43 -35 -54 -31 -9 3 -16 1 -16 -5 0 -24 -25 -9 -80 49
l-58 60 -110 0 c-61 0 -113 -4 -116 -9 -3 -5 -15 -11 -26 -14 -18 -5 -20 -2
-14 16 4 12 7 30 6 40 -1 15 13 17 147 17 l147 0 44 -54 c25 -30 51 -57 59
-61 9 -4 37 16 75 54 l61 60 160 3 c175 3 185 2 185 -18z m2140 3 c0 -12 -65
-37 -95 -37 -8 0 -15 -7 -15 -15 0 -19 -42 -43 -48 -26 -2 6 -11 11 -20 11
-15 0 -15 2 -2 10 12 8 11 10 -6 10 -12 0 -25 -7 -28 -16 -7 -19 -54 -12 -71
10 -7 10 -46 15 -130 17 -108 4 -120 2 -117 -13 1 -9 -8 -24 -20 -32 -19 -14
-24 -14 -37 -1 -11 11 -12 17 -2 29 10 12 7 15 -18 21 -17 4 -48 6 -68 5 -59
-3 -65 -1 -61 18 3 16 31 17 363 22 198 3 363 4 368 2 4 -2 7 -9 7 -15z
m-3063 -29 c-6 -25 -13 -36 -15 -25 -2 9 -9 17 -15 18 -7 0 -101 0 -211 -1
-173 -1 -201 1 -217 16 -10 9 -16 21 -13 25 3 5 112 9 244 9 l238 0 -11 -42z
m-398 -21 c-2 -1 -12 -9 -22 -16 -15 -12 -17 -12 -11 3 3 9 13 16 22 16 8 0
13 -1 11 -3z m3158 -22 c9 -20 8 -25 -2 -25 -7 0 -15 11 -17 25 -7 32 4 32 19
0z m1873 15 c0 -5 -4 -10 -10 -10 -5 0 -10 5 -10 10 0 6 5 10 10 10 6 0 10 -4
10 -10z m-2047 -17 c-3 -7 -6 -13 -8 -13 -2 0 -5 6 -8 13 -3 8 1 14 8 14 7 0
11 -6 8 -14z m3801 -2 c3 -5 -9 -15 -27 -22 -17 -7 -35 -14 -39 -17 -5 -2 -8
6 -8 18 0 16 4 20 16 16 8 -3 12 -2 9 4 -3 6 5 10 19 10 14 0 27 -4 30 -9z
m-4337 -43 c-3 -8 -6 -5 -6 6 -1 11 2 17 5 13 3 -3 4 -12 1 -19z m3895 12 c2
-5 36 -11 75 -12 50 -2 74 -7 78 -17 4 -10 9 -10 18 -3 7 6 32 9 57 6 25 -3
54 -7 65 -8 27 -3 32 -42 7 -48 -30 -8 -392 3 -416 12 -18 7 -15 9 21 15 23 4
42 10 41 14 -3 26 4 40 17 35 8 -4 15 -1 15 5 0 14 17 15 22 1z m-5952 -36 c0
-8 -5 -12 -10 -9 -6 4 -8 11 -5 16 9 14 15 11 15 -7z m3977 10 c-3 -3 -12 -4
-19 -1 -8 3 -5 6 6 6 11 1 17 -2 13 -5z m43 -4 c13 -8 13 -10 -2 -10 -9 0 -20
5 -23 10 -8 13 5 13 25 0z m-1287 -14 c7 -19 -17 -28 -45 -16 -13 5 -18 10
-13 11 6 1 -3 5 -20 9 -26 7 -23 8 21 9 36 1 53 -3 57 -13z m1362 4 c-3 -5 1
-10 10 -10 9 0 14 -4 10 -9 -3 -5 5 -12 17 -14 13 -2 -34 -5 -104 -6 -106 -1
-126 1 -122 13 8 20 41 26 102 19 36 -4 52 -2 52 6 0 6 9 11 21 11 11 0 17 -4
14 -10z m2301 -6 c-3 -9 -6 -20 -6 -25 0 -5 -13 -9 -30 -9 -34 0 -39 16 -12
36 25 19 56 18 48 -2z m51 10 c-3 -3 -12 -4 -19 -1 -8 3 -5 6 6 6 11 1 17 -2
13 -5z m-3544 -21 c-7 -2 -19 -2 -25 0 -7 3 -2 5 12 5 14 0 19 -2 13 -5z
m1693 -27 c8 -8 11 -17 6 -20 -4 -2 -13 4 -20 15 -14 22 -7 25 14 5z m1194
-11 c-13 -14 -28 -25 -34 -24 -6 0 -5 3 2 6 6 2 9 9 6 15 -7 11 13 28 35 28
10 0 7 -8 -9 -25z m-5996 -11 c3 -8 2 -12 -4 -9 -6 3 -10 10 -10 16 0 14 7 11
14 -7z m4784 -13 c4 -28 -13 -20 -21 9 -3 14 -1 20 6 17 7 -2 14 -14 15 -26z
m827 -33 c11 -10 11 -12 13 -84 l2 -51 72 -2 c40 -1 73 -3 74 -4 3 -3 24 -721
24 -820 l0 -87 -87 1 c-62 1 -79 4 -58 9 17 4 26 9 20 10 -57 11 -53 18 -47
-80 l5 -90 -74 -1 c-41 0 -208 -1 -372 -3 l-298 -2 2 78 c1 43 6 78 10 78 5 0
9 7 9 15 0 21 -12 19 -33 -5 -15 -18 -27 -20 -80 -18 l-62 3 -6 280 c-6 260
-11 595 -10 621 1 7 30 15 71 19 l69 7 3 66 3 67 180 6 c226 7 557 -1 570 -13z
m1006 7 l246 -8 7 -105 c3 -58 6 -124 6 -148 l0 -42 -191 5 c-105 3 -234 2
-285 -2 l-94 -7 0 -58 c0 -97 -19 -90 246 -90 l234 0 0 -45 0 -44 73 -3 72 -3
6 -140 c4 -77 8 -192 10 -255 l4 -115 -80 4 -80 3 3 -76 c4 -78 -6 -96 -33
-60 -8 12 -20 15 -39 10 -15 -4 -24 -11 -21 -16 5 -8 -258 -19 -303 -11 -18 3
-22 9 -19 23 6 22 -20 118 -35 133 -8 7 -9 5 -5 -7 20 -57 18 -84 -7 -113 -14
-17 -26 -33 -26 -36 0 -3 -80 -5 -179 -5 l-178 1 -7 142 c-4 79 -4 147 -1 153
4 6 118 10 311 10 l304 0 0 85 c0 67 3 87 15 91 8 4 15 10 15 15 0 15 -18 10
-38 -11 -17 -18 -33 -19 -247 -20 l-230 -1 3 58 2 58 -72 -6 c-40 -3 -74 -5
-75 -5 -1 1 -7 96 -13 211 -7 131 -16 215 -23 224 -9 11 -9 15 1 18 6 3 12 13
12 23 0 19 25 29 80 31 l35 1 -28 10 -27 10 41 58 41 59 67 3 c72 4 136 3 502
-7z m1381 -34 c0 -23 -2 -45 -6 -48 -3 -4 -6 18 -6 47 0 29 3 51 6 48 3 -3 5
-25 6 -47z m-8062 2 c0 -16 -4 -45 -9 -65 l-9 -38 57 0 56 0 15 63 15 62 189
3 189 2 -7 -72 -6 -73 69 0 c77 0 94 -8 65 -31 -10 -8 -13 -13 -6 -9 9 5 12
-22 12 -119 0 -126 -5 -160 -21 -150 -5 3 -9 1 -9 -5 0 -5 5 -13 10 -16 6 -3
9 -30 9 -58 -2 -52 -2 -52 -8 -12 -6 35 -8 29 -14 -45 -17 -197 -21 -206 -93
-228 -31 -9 -34 -9 -23 4 7 9 24 21 39 29 34 18 39 60 7 70 -12 4 -38 7 -58 6
-20 -2 -40 2 -44 8 -3 6 -11 9 -16 5 -5 -3 -30 -6 -54 -6 -24 0 -48 -5 -53
-11 -11 -15 -32 -243 -32 -350 l0 -78 46 4 c50 4 74 24 74 63 0 13 5 26 11 30
11 7 10 -2 -13 -77 -10 -36 -11 -36 -76 -42 -36 -4 -67 -5 -70 -3 -2 2 1 46 7
97 9 80 16 394 10 424 -1 6 -5 -15 -9 -45 l-7 -55 -1 75 c-1 48 2 70 7 61 13
-20 19 25 25 182 l5 127 -164 0 -165 0 0 -92 c0 -78 -12 -269 -46 -705 l-6
-73 -73 0 -73 0 -4 30 c-4 29 6 42 14 19 2 -6 27 -14 55 -16 59 -6 67 2 69 67
8 377 7 423 -8 417 -7 -2 -12 -10 -10 -16 4 -18 -35 -12 -49 8 -11 15 -32 20
-93 25 l-78 6 5 -29 c4 -17 2 -31 -4 -33 -9 -3 -26 -217 -32 -398 l-2 -45 38
-3 c32 -3 38 0 47 22 14 37 18 32 11 -11 l-6 -38 -64 -2 c-56 -2 -62 0 -55 15
22 49 34 579 13 566 -8 -5 -10 6 -6 37 3 24 9 118 13 209 3 91 8 181 9 200 2
19 4 59 4 88 l1 52 190 0 190 0 0 -27z m2717 5 c-4 -12 -3 -34 0 -48 6 -22 8
-20 18 20 l11 45 357 3 357 2 0 -24 c0 -13 -6 -27 -12 -30 -10 -5 -10 -7 0
-12 6 -3 12 -21 12 -40 0 -20 -4 -33 -9 -30 -14 9 -21 -142 -21 -440 l0 -282
-30 -12 c-39 -16 -126 -5 -165 20 -22 14 -40 18 -71 13 l-41 -5 -6 47 c-4 26
-7 63 -7 81 l0 34 -152 0 -153 0 0 -110 c0 -60 4 -110 8 -110 290 -1 285 -1
292 21 5 15 10 17 20 9 7 -6 28 -10 46 -9 40 3 70 -11 98 -47 30 -39 18 -55
-25 -33 -19 9 -41 23 -49 29 -10 9 -19 9 -35 0 -12 -6 -24 -9 -28 -6 -3 3 0 6
6 6 7 0 12 4 12 9 0 5 -9 7 -20 4 -11 -3 -18 -9 -15 -13 3 -5 3 -15 0 -23 -5
-11 -28 -14 -117 -12 -74 1 -113 6 -116 13 -4 13 -41 16 -57 4 -13 -8 -13 -22
-1 -40 4 -7 5 -16 2 -20 -10 -9 -42 14 -39 27 4 15 -10 14 -25 -1 -9 -9 -15
-9 -24 0 -9 9 -8 12 8 12 14 0 16 2 5 9 -10 6 -11 13 -3 27 13 24 -2 54 -28
54 -27 0 -33 -15 -17 -47 8 -15 14 -41 13 -56 -1 -16 2 -31 6 -33 4 -3 8 0 8
5 0 6 5 11 10 11 6 0 2 -12 -7 -27 -17 -26 -17 -27 1 -20 14 6 17 4 12 -9 -3
-8 -6 -20 -6 -25 0 -5 -5 -9 -11 -9 -5 0 -8 4 -5 9 3 5 -1 11 -9 14 -16 7 -11
-14 11 -47 12 -18 13 -17 20 8 6 24 10 26 63 25 49 -1 52 -2 21 -8 -40 -8 -60
-18 -60 -30 0 -13 92 -23 104 -11 7 7 -1 10 -24 10 -43 0 -29 15 22 24 l38 7
-7 -33 c-3 -18 -7 -34 -7 -35 -6 -7 -118 -12 -153 -7 -39 6 -43 9 -50 43 -4
20 -6 38 -6 41 1 3 5 18 8 33 6 22 4 27 -11 27 -18 1 -18 1 -1 14 24 19 22 23
-18 23 -19 0 -35 -4 -35 -9 0 -4 5 -8 10 -8 6 0 10 -5 10 -11 0 -6 -15 -2 -32
10 -34 21 -33 17 -37 126 -1 18 -2 18 -17 -3 -9 -13 -13 -30 -10 -39 7 -18
-12 -46 -25 -37 -15 9 -10 -6 8 -24 28 -29 99 -65 111 -58 4 2 8 -9 9 -26 0
-17 -2 -26 -6 -21 -3 6 -16 13 -28 17 -12 4 -25 15 -28 25 -5 17 -32 31 -62
31 -9 0 -13 -20 -13 -66 l0 -66 55 4 c39 3 59 1 66 -9 9 -11 -2 -13 -60 -13
-39 0 -73 0 -76 0 -3 0 -7 82 -10 182 -2 116 -8 184 -14 186 -7 2 -11 48 -11
123 l0 119 70 0 c66 0 70 1 76 25 3 14 3 32 0 42 -4 9 -1 20 6 25 19 12 436
10 459 -2 18 -10 19 -8 14 42 -3 29 -8 63 -10 74 -3 12 2 27 10 34 8 7 15 21
15 31 0 18 -10 19 -164 19 -181 0 -166 -6 -181 68 -10 48 -23 39 -22 -15 l2
-48 -125 -5 c-86 -3 -125 -9 -125 -17 0 -6 -3 -15 -7 -19 -5 -4 -8 61 -8 144
l0 152 121 0 c120 0 121 0 116 -22z m-3260 -4 c11 -29 -12 -245 -28 -255 -10
-6 -10 -9 -1 -9 7 0 12 -12 12 -27 -1 -26 -2 -27 -14 -10 -8 10 -18 17 -22 16
-22 -6 -152 43 -159 59 -4 9 -9 52 -12 95 -3 43 -9 73 -13 66 -4 -6 -13 -8
-19 -4 -8 4 -7 -6 3 -28 8 -20 12 -44 10 -55 -3 -10 5 -40 18 -67 19 -40 29
-51 58 -58 19 -5 46 -17 61 -28 15 -10 30 -19 33 -19 3 0 17 -10 31 -22 20
-17 24 -28 20 -57 -2 -20 -8 -81 -12 -136 -5 -71 -8 -90 -13 -65 -5 32 -7 28
-17 -35 -7 -38 -12 -77 -11 -85 4 -48 -3 -80 -17 -80 -13 0 -14 19 -10 123 2
67 2 112 -1 100 l-5 -22 -21 21 c-14 14 -23 18 -26 10 -3 -9 -9 -9 -24 -1 -11
6 -45 9 -76 6 -99 -8 -96 -5 -109 -93 -6 -43 -12 -101 -12 -129 -1 -27 -5 -55
-9 -62 -9 -15 -8 443 3 680 l8 187 184 0 c159 0 184 -2 190 -16z m2868 -1
c-15 -35 -17 -61 -6 -67 6 -4 11 -15 10 -24 0 -14 -2 -13 -9 3 -6 14 -9 -2 -9
-52 -1 -39 -4 -78 -7 -87 -3 -8 -28 -22 -55 -31 -56 -19 -56 -35 -1 -35 31 0
41 -5 55 -30 10 -16 14 -30 9 -30 -6 0 -13 -91 -17 -214 -4 -117 -11 -219 -15
-227 -6 -8 -13 -1 -24 26 -9 20 -16 43 -16 49 -1 6 -9 1 -19 -11 -19 -23 -89
-54 -128 -56 -12 -1 -25 -6 -30 -11 -5 -5 -2 -6 7 -1 12 6 12 5 4 -4 -20 -22
-54 8 -55 49 l-1 35 -9 -30 c-5 -16 -12 -103 -15 -192 l-7 -163 24 -2 c13 0
34 -1 46 -2 13 -1 23 -5 24 -11 0 -12 -34 -23 -81 -24 l-36 -1 3 298 c1 178
-1 287 -7 272 -5 -15 -8 95 -8 283 l0 307 190 0 c177 0 190 -1 183 -17z
m-3488 -45 c-2 -13 -4 -5 -4 17 -1 22 1 32 4 23 2 -10 2 -28 0 -40z m2970 -5
c-3 -10 -5 -2 -5 17 0 19 2 27 5 18 2 -10 2 -26 0 -35z m3957 22 c3 -8 1 -15
-4 -15 -6 0 -10 7 -10 15 0 8 2 15 4 15 2 0 6 -7 10 -15z m150 -50 c-4 -8 -8
-15 -10 -15 -2 0 -4 7 -4 15 0 8 4 15 10 15 5 0 7 -7 4 -15z m2150 -85 c10
-10 15 -23 12 -29 -11 -17 -29 -13 -22 6 8 20 -10 33 -47 33 -18 0 -26 4 -21
11 8 14 54 2 78 -21z m-9204 -10 c0 -5 -2 -10 -4 -10 -3 0 -8 5 -11 10 -3 6
-1 10 4 10 6 0 11 -4 11 -10z m1397 -327 c-2 -16 -4 -3 -4 27 0 30 2 43 4 28
2 -16 2 -40 0 -55z m520 -65 c-3 -8 -6 -5 -6 6 -1 11 2 17 5 13 3 -3 4 -12 1
-19z m-204 -320 c-3 -46 -8 -121 -12 -168 l-6 -85 -62 -3 c-52 -2 -63 0 -63
13 0 15 8 18 70 19 l35 1 0 124 c0 121 -1 124 -22 126 -15 1 -23 -5 -28 -22
-3 -13 -12 -23 -20 -23 -7 0 -16 -9 -20 -19 -3 -11 -12 -22 -20 -24 -11 -5
-12 0 -4 21 15 40 29 56 84 91 73 46 75 44 68 -51z m1597 52 c0 -5 -4 -10 -10
-10 -5 0 -10 5 -10 10 0 6 5 10 10 10 6 0 10 -4 10 -10z m-2900 -25 c0 -12
-29 -3 -34 10 -4 13 -2 14 14 5 11 -6 20 -13 20 -15z m1148 0 c-11 -25 -32
-33 -43 -15 -4 7 35 37 52 40 2 0 -3 -11 -9 -25z m-1054 -87 c-11 -134 -11
-141 -13 -165 -1 -21 -6 -23 -66 -23 -41 0 -65 4 -65 11 0 8 17 9 54 5 30 -4
56 -4 59 1 2 4 8 61 12 126 8 133 6 136 -60 92 -45 -31 -60 -25 -20 7 35 28
53 36 84 37 l23 1 -8 -92z m2812 77 c-22 -17 -36 -19 -36 -7 0 14 12 22 34 22
21 -1 21 -1 2 -15z m108 -117 c-3 -73 -7 -139 -10 -146 -3 -9 -23 -12 -71 -10
-54 2 -68 6 -71 20 -3 15 4 16 62 11 l66 -6 2 44 c1 24 2 74 3 111 0 63 -1 67
-20 62 -28 -9 -46 -25 -39 -35 3 -5 -1 -6 -9 -3 -10 3 -17 -4 -21 -21 -7 -28
-26 -25 -26 4 0 32 83 98 127 100 8 1 10 -34 7 -131z m-528 -10 c-4 -73 -8
-134 -9 -135 -5 -4 -114 -9 -124 -5 -32 11 -7 22 53 22 l66 0 -2 118 c-3 136
-3 132 11 132 9 0 10 -36 5 -132z m-2689 2 l-6 -120 49 0 c27 0 51 -4 55 -9 7
-13 -18 -17 -76 -13 l-47 4 4 76 c7 116 15 182 21 182 3 0 3 -54 0 -120z
m2643 75 c-7 -8 -29 -15 -50 -15 -39 0 -49 -11 -51 -53 0 -21 -1 -20 -10 3 -9
22 -6 28 22 52 18 15 46 28 63 30 39 4 42 2 26 -17z m1722 14 c2 -2 2 -55 0
-116 l-3 -113 -65 0 c-52 0 -64 3 -64 16 0 13 10 15 53 12 l52 -3 0 77 c0 63
-3 78 -15 78 -12 0 -12 2 -2 9 10 6 3 10 -23 15 -20 4 -38 6 -39 4 -2 -2 -8
-19 -14 -38 l-11 -35 1 45 c1 25 3 49 6 54 4 8 119 4 124 -5z m-3705 -51 c-3
-8 -6 -5 -6 6 -1 11 2 17 5 13 3 -3 4 -12 1 -19z m3518 2 c3 -6 -1 -7 -9 -4
-18 7 -21 14 -7 14 6 0 13 -4 16 -10z m122 4 c-3 -3 -12 -4 -19 -1 -8 3 -5 6
6 6 11 1 17 -2 13 -5z m-4564 -19 c-3 -9 -8 -14 -10 -11 -3 3 -2 9 2 15 9 16
15 13 8 -4z m1612 -34 c-6 -5 -25 10 -25 20 0 5 6 4 14 -3 8 -7 12 -15 11 -17z
m2568 15 c30 -8 63 -19 73 -24 11 -5 31 -15 47 -21 15 -6 27 -18 27 -26 0 -27
26 -45 63 -45 39 0 43 6 46 70 1 24 4 47 7 49 3 3 4 -31 2 -74 l-3 -80 -65 0
-65 0 -3 49 -3 49 -104 -7 c-107 -7 -133 0 -94 27 13 9 16 17 10 22 -14 8 -14
25 -1 25 5 0 33 -6 63 -14z m-115 -23 c2 -8 -5 -13 -17 -13 -21 0 -35 13 -24
24 10 10 36 3 41 -11z m447 -41 c-9 -9 -25 11 -25 31 1 21 1 21 15 -3 7 -14
12 -27 10 -28z m-1917 10 c2 -8 -13 -12 -50 -12 -38 0 -49 3 -38 10 8 5 22 7
32 4 9 -2 19 0 23 6 8 13 27 8 33 -8z m759 -34 c-3 -8 -6 -5 -6 6 -1 11 2 17
5 13 3 -3 4 -12 1 -19z m-537 -21 c0 -5 -4 -5 -10 -2 -5 3 -10 14 -10 23 0 15
2 15 10 2 5 -8 10 -19 10 -23z m-160 -2 c0 -11 12 -15 49 -15 28 0 52 -4 55
-9 7 -10 -103 -21 -119 -12 -15 9 -14 51 2 51 7 0 13 -7 13 -15z m945 -865
c-36 -9 -20 -11 84 -11 41 0 82 -4 91 -9 12 -7 21 -35 30 -100 7 -50 11 -93 8
-95 -6 -6 -259 -38 -263 -33 -1 2 -6 58 -10 125 l-7 121 24 5 c13 2 34 4 48 4
22 1 22 0 -5 -7z m2119 -5 c-5 -12 2 -15 27 -14 29 0 31 2 14 10 -18 8 -18 8
5 6 l25 -2 -3 -102 c-2 -66 1 -103 8 -103 5 0 10 6 10 13 0 27 16 38 42 28 17
-6 29 -6 36 1 9 9 17 6 33 -8 22 -19 22 -19 16 6 -3 14 -8 34 -12 45 -6 19 -3
20 46 15 46 -4 54 -8 60 -30 10 -35 11 -118 2 -123 -5 -2 -55 0 -113 5 -58 5
-114 10 -125 10 -34 1 -278 27 -280 30 -6 7 28 194 38 206 7 9 29 11 85 6 56
-5 73 -4 68 4 -4 7 -1 12 8 12 10 0 13 -6 10 -15z m209 8 c-7 -2 -21 -2 -30 0
-10 3 -4 5 12 5 17 0 24 -2 18 -5z m-2919 -144 c9 -47 16 -103 16 -124 l0 -38
68 7 c37 3 97 9 133 12 l66 7 7 -69 c4 -38 10 -95 13 -128 l6 -58 41 5 c23 3
83 9 134 13 75 6 92 4 92 -7 0 -8 5 -63 11 -122 6 -59 10 -110 8 -112 -7 -6
-251 -36 -256 -31 -3 2 -11 57 -18 121 -8 65 -16 120 -19 123 -3 2 -60 -1
-127 -7 -66 -7 -123 -10 -126 -7 -3 3 -11 57 -18 121 -7 64 -15 119 -18 122
-4 3 -58 0 -122 -7 -64 -6 -119 -9 -123 -6 -7 8 -27 234 -21 240 2 2 33 1 69
-3 36 -5 67 -5 70 0 3 4 26 9 50 12 43 3 42 4 -15 7 l-60 3 60 6 c33 3 61 6
62 6 0 0 8 -39 17 -86z m3406 67 l-35 -13 37 -7 c20 -4 49 -4 65 0 24 6 25 8
8 14 -14 5 -8 8 20 8 33 0 36 -2 18 -9 -27 -10 -28 -13 -6 -30 15 -12 16 -12
10 4 -3 9 -2 17 2 17 5 0 16 3 25 6 14 5 15 -6 11 -92 -3 -55 -8 -112 -11
-127 l-6 -28 -81 8 c-45 4 -102 8 -127 8 l-45 0 -6 -77 c-4 -42 -10 -97 -14
-123 l-7 -48 -51 6 c-169 19 -204 20 -210 3 -4 -9 -12 -66 -18 -126 l-12 -111
-41 5 c-23 3 -80 10 -128 17 -48 6 -91 8 -96 5 -5 -3 -15 -60 -23 -127 l-13
-121 -61 6 c-33 3 -90 9 -127 12 -38 4 -68 12 -68 17 0 6 5 62 11 124 l12 113
27 0 c16 0 74 -5 130 -10 56 -6 104 -9 106 -7 3 2 10 58 16 123 6 66 14 122
17 126 3 3 60 0 126 -8 66 -8 125 -12 131 -10 6 3 14 46 18 103 11 154 7 147
85 140 36 -3 94 -9 127 -13 l62 -7 11 74 c7 41 15 92 18 114 3 22 8 35 10 28
3 -8 11 -5 24 8 12 12 32 19 57 18 l37 -1 -35 -12z m-3833 -2 c-3 -3 -12 -4
-19 -1 -8 3 -5 6 6 6 11 1 17 -2 13 -5z m271 -1 c-10 -2 -28 -2 -40 0 -13 2
-5 4 17 4 22 1 32 -1 23 -4z m-315 -10 c-7 -2 -19 -2 -25 0 -7 3 -2 5 12 5 14
0 19 -2 13 -5z m800 -40 c29 -8 46 -8 54 -1 20 17 15 -5 -10 -42 -23 -33 -26
-80 -5 -80 6 0 8 11 4 24 -5 21 -3 23 20 18 16 -3 21 -7 14 -12 -14 -8 9 -19
43 -21 12 -1 -18 -8 -66 -16 -49 -8 -91 -12 -94 -9 -3 3 -7 44 -9 93 -2 48 -1
81 2 72 2 -8 24 -20 47 -26z m-318 -471 c-10 -9 -15 -11 -11 -4 5 8 -3 12 -26
13 -32 2 -32 2 7 8 49 8 54 5 30 -17z m3383 11 c-10 -2 -28 -2 -40 0 -13 2 -5
4 17 4 22 1 32 -1 23 -4z m-3538 -7 c0 -2 -7 -6 -15 -10 -8 -3 -15 -1 -15 4 0
6 7 10 15 10 8 0 15 -2 15 -4z m-40 -21 c0 -8 -4 -15 -10 -15 -5 0 -7 7 -4 15
4 8 8 15 10 15 2 0 4 -7 4 -15z m0 -76 c0 -11 -4 -17 -10 -14 -5 3 -10 13 -10
21 0 8 5 14 10 14 6 0 10 -9 10 -21z m100 -13 c0 -3 -4 -8 -10 -11 -5 -3 -10
-1 -10 4 0 6 5 11 10 11 6 0 10 -2 10 -4z m960 -150 c7 -63 10 -119 6 -124 -6
-10 -233 -38 -241 -30 -4 4 -35 209 -35 233 0 12 117 30 211 33 l47 2 12 -114z
m-1063 62 c-3 -8 -6 -5 -6 6 -1 11 2 17 5 13 3 -3 4 -12 1 -19z m-49 -90 c-30
-29 -62 -38 -78 -21 -3 3 7 4 22 1 15 -3 25 -1 22 3 -14 23 -137 0 -153 -29
-8 -14 -10 -13 -16 11 -4 15 -6 30 -3 32 3 3 161 27 226 34 7 0 -2 -14 -20
-31z m3892 12 c52 -6 95 -12 96 -13 2 -1 -1 -18 -6 -37 -4 -19 -8 -28 -9 -19
-1 24 -99 33 -123 12 -16 -14 -20 -13 -46 13 -15 16 -34 37 -42 47 -12 17 -11
18 11 13 13 -3 67 -10 119 -16z m-24 -84 c-1 -18 -4 -22 -13 -14 -10 8 -10 13
0 23 7 8 13 14 13 15 1 0 1 -11 0 -24z m171 -183 c-9 -2 -15 -9 -12 -14 9 -14
-5 -11 -21 6 -14 13 -12 15 18 14 18 -1 25 -3 15 -6z m-4390 -19 c-3 -3 -12
-4 -19 -1 -8 3 -5 6 6 6 11 1 17 -2 13 -5z m-127 -19 c0 -8 -6 -15 -12 -16 -7
0 -53 -3 -103 -5 -75 -3 -93 -7 -107 -24 -9 -11 -24 -20 -35 -20 -10 0 -53 -5
-97 -12 l-78 -12 5 -103 c3 -57 4 -103 2 -103 -2 0 -10 -3 -18 -6 -16 -6 -20
13 -32 176 l-5 76 137 17 c76 10 161 20 188 23 28 3 70 9 95 13 25 5 48 9 53
10 4 0 7 -6 7 -14z m4781 0 c16 -1 46 -2 67 -4 28 -1 33 -4 21 -11 -21 -13
-141 2 -147 18 -2 8 2 10 13 6 10 -4 30 -8 46 -9z m306 -33 c66 -9 122 -20
123 -25 4 -12 -11 -220 -16 -239 -3 -10 -11 -18 -19 -18 -19 0 -24 22 -26 108
-2 64 -4 72 -20 67 -13 -5 -16 -1 -12 14 4 16 -4 24 -40 40 -62 28 -97 28 -98
-1 -1 -18 -3 -16 -8 7 -5 22 -12 31 -31 33 -14 1 -36 5 -50 9 -25 6 -25 6 5
13 45 11 60 11 192 -8z m16 -89 c-7 -2 -21 -2 -30 0 -10 3 -4 5 12 5 17 0 24
-2 18 -5z m-5058 -239 l7 -120 -103 -12 c-57 -7 -114 -15 -126 -18 -20 -6 -21
-2 -27 83 -4 48 -8 105 -10 126 -4 43 -13 39 139 59 55 8 103 11 107 8 3 -3 9
-59 13 -126z m4799 111 c54 -7 100 -16 103 -19 5 -5 -12 -235 -19 -241 -5 -5
-236 30 -243 36 -3 3 -2 58 1 122 l7 117 26 0 c14 0 70 -7 125 -15z m-404
-369 c0 -37 -4 -56 -14 -59 -12 -5 -14 3 -10 41 9 88 24 100 24 18z"/>
<path d="M3145 8490 c3 -5 14 -10 23 -10 15 0 15 2 2 10 -20 13 -33 13 -25 0z"/>
<path d="M3288 8463 c7 -3 16 -2 19 1 4 3 -2 6 -13 5 -11 0 -14 -3 -6 -6z"/>
<path d="M3090 8325 c0 -8 4 -15 10 -15 5 0 7 7 4 15 -4 8 -8 15 -10 15 -2 0
-4 -7 -4 -15z"/>
<path d="M3560 7920 c0 -5 5 -10 10 -10 6 0 10 5 10 10 0 6 -4 10 -10 10 -5 0
-10 -4 -10 -10z"/>
<path d="M3615 7912 l20 -4 -20 -9 c-15 -7 -9 -8 22 -6 24 1 44 -1 45 -4 2 -4
21 -3 43 1 l40 8 -35 2 c-35 3 -47 4 -105 13 -16 2 -21 2 -10 -1z"/>
<path d="M3550 7868 c0 -8 -3 -36 -6 -62 -6 -44 -6 -46 17 -45 17 1 19 3 7 6
-12 3 -18 14 -17 31 0 24 1 25 9 7 6 -13 7 -5 3 25 -6 45 -13 66 -13 38z"/>
<path d="M3736 7874 c13 -5 7 -94 -7 -108 -12 -13 -12 -56 1 -56 9 0 14 24 25
118 5 46 4 52 -12 51 -10 0 -13 -3 -7 -5z"/>
<path d="M3673 7763 c4 -3 2 -12 -4 -20 -9 -9 -8 -13 0 -13 6 0 11 2 11 4 0 2
3 11 6 20 4 10 1 16 -7 16 -7 0 -9 -3 -6 -7z"/>
<path d="M3530 7740 c0 -5 14 -10 30 -10 17 0 30 5 30 10 0 6 -13 10 -30 10
-16 0 -30 -4 -30 -10z"/>
<path d="M3771 7568 c-7 -46 -14 -91 -17 -100 -5 -15 1 -18 39 -18 25 0 47 -4
49 -9 2 -4 31 -11 65 -14 l62 -6 5 42 c17 136 17 157 4 157 -7 1 -44 5 -83 10
-51 6 -72 5 -77 -3 -5 -9 -10 -8 -20 2 -10 10 -10 12 0 7 6 -4 12 -2 12 3 0 6
-6 11 -13 11 -9 0 -18 -27 -26 -82z m16 0 c-3 -8 -6 -5 -6 6 -1 11 2 17 5 13
3 -3 4 -12 1 -19z m0 -70 c-3 -8 -6 -5 -6 6 -1 11 2 17 5 13 3 -3 4 -12 1 -19z"/>
<path d="M4006 7348 c-8 -23 -28 -180 -24 -184 10 -10 179 -19 188 -10 7 7 10
6 10 -2 0 -7 4 -12 9 -12 8 0 23 109 26 180 0 16 -31 24 -135 34 -54 6 -71 4
-74 -6z m87 -35 c-7 -2 -19 -2 -25 0 -7 3 -2 5 12 5 14 0 19 -2 13 -5z"/>
<path d="M4220 7002 c-7 -48 -13 -96 -13 -106 -2 -18 10 -21 107 -33 59 -8
109 -13 111 -11 1 2 6 49 10 104 l7 101 -77 8 c-42 4 -89 11 -105 15 l-28 8
-12 -86z"/>
<path d="M7488 8513 c6 -2 18 -2 25 0 6 3 1 5 -13 5 -14 0 -19 -2 -12 -5z"/>
<path d="M7235 8490 c28 -12 37 -12 30 0 -3 6 -16 10 -28 9 -21 0 -21 -1 -2
-9z"/>
<path d="M7220 8460 c0 -5 7 -10 15 -10 8 0 15 5 15 10 0 6 -7 10 -15 10 -8 0
-15 -4 -15 -10z"/>
<path d="M7273 8453 c-17 -6 -16 -21 2 -39 13 -14 15 -12 15 15 0 17 -1 31 -2
30 -2 0 -9 -3 -15 -6z"/>
<path d="M7086 8405 c-3 -8 -1 -15 4 -15 6 0 10 7 10 15 0 8 -2 15 -4 15 -2 0
-6 -7 -10 -15z"/>
<path d="M7116 8370 c7 -28 12 -35 18 -29 2 2 -2 15 -10 29 l-15 25 7 -25z"/>
<path d="M7480 8360 c-12 -8 -9 -10 13 -10 15 0 27 5 27 10 0 13 -20 13 -40 0z"/>
<path d="M7094 8316 c1 -34 2 -36 36 -35 19 1 27 3 17 6 -11 3 -16 11 -13 19
3 8 -1 14 -9 14 -8 0 -18 7 -23 16 -6 11 -8 5 -8 -20z"/>
<path d="M7235 8310 c-3 -5 1 -10 9 -10 8 0 18 5 21 10 3 6 -1 10 -9 10 -8 0
-18 -4 -21 -10z"/>
<path d="M7066 8055 c-3 -8 -1 -15 4 -15 6 0 10 7 10 15 0 8 -2 15 -4 15 -2 0
-6 -7 -10 -15z"/>
<path d="M6830 7859 c0 -19 5 -41 10 -49 7 -10 8 -1 4 30 -8 56 -14 64 -14 19z"/>
<path d="M6850 7751 c0 -5 -8 -12 -17 -14 -14 -4 -12 -5 5 -6 13 -1 22 5 22
14 0 8 -2 15 -5 15 -3 0 -5 -4 -5 -9z"/>
<path d="M6650 7731 c0 -6 5 -13 10 -16 6 -3 10 1 10 9 0 9 -4 16 -10 16 -5 0
-10 -4 -10 -9z"/>
<path d="M6750 7724 l-35 -13 45 6 c51 7 56 9 38 15 -7 3 -29 -1 -48 -8z"/>
<path d="M6578 7639 c-10 -5 -47 -12 -83 -16 -66 -6 -74 -10 -54 -30 6 -6 8
-17 4 -24 -6 -8 -12 -3 -22 15 -8 15 -16 26 -18 24 -1 -1 2 -44 8 -95 l10 -91
33 1 c17 1 31 4 29 7 -2 3 24 6 57 7 94 4 99 7 92 56 -13 99 -45 177 -36 90 2
-29 1 -34 -7 -23 -6 8 -11 23 -11 33 0 10 -4 15 -10 12 -5 -3 -10 -2 -10 4 0
6 11 13 25 17 14 3 25 10 25 15 0 12 -11 11 -32 -2z m-8 -71 c0 -18 -2 -20 -9
-8 -6 8 -7 18 -5 22 9 14 14 9 14 -14z"/>
<path d="M6350 7360 c-14 -5 -58 -14 -98 -20 l-73 -12 7 -96 c4 -54 7 -97 8
-98 1 -1 208 23 214 25 1 1 2 7 2 15 0 8 -10 17 -22 19 -23 4 -23 4 1 6 19 1
22 5 18 24 -3 12 -9 50 -13 85 -3 34 -9 62 -13 61 -3 0 -17 -4 -31 -9z m-10
-41 c0 -6 8 -8 19 -4 16 5 18 2 14 -15 -6 -21 -6 -21 -27 -1 -12 12 -39 21
-66 24 l-45 4 53 1 c31 1 52 -2 52 -9z"/>
<path d="M6037 7062 l-88 -15 8 -76 c4 -42 7 -87 8 -100 0 -22 3 -23 45 -17
25 4 75 9 113 13 37 3 67 10 67 15 0 13 -20 148 -26 176 -5 25 -6 25 -127 4z"/>
<path d="M3525 6510 c-3 -5 3 -10 14 -10 11 0 23 5 26 10 3 6 -3 10 -14 10
-11 0 -23 -4 -26 -10z"/>
<path d="M4166 6512 c-3 -5 -20 -7 -38 -5 l-33 4 24 -20 c30 -27 35 -26 55 4
9 14 12 25 7 25 -5 0 -12 -4 -15 -8z"/>
<path d="M5170 6510 c0 -5 5 -10 11 -10 5 0 7 5 4 10 -3 6 -8 10 -11 10 -2 0
-4 -4 -4 -10z"/>
<path d="M5300 6505 c0 -18 12 -19 27 -4 8 8 19 8 42 -2 31 -14 41 -29 20 -29
-14 0 -7 -42 7 -47 6 -2 14 5 17 17 3 11 11 19 19 18 7 -2 11 3 9 12 -2 8 -4
23 -5 33 0 14 -10 17 -68 17 -54 0 -68 -3 -68 -15z"/>
<path d="M5557 6491 c-10 -12 -9 -14 6 -8 10 4 23 7 28 7 5 0 9 4 9 8 0 14
-30 10 -43 -7z"/>
<path d="M5932 6380 c0 -14 2 -19 5 -12 2 6 2 18 0 25 -3 6 -5 1 -5 -13z"/>
<path d="M8590 6270 c0 -5 5 -10 10 -10 6 0 10 5 10 10 0 6 -4 10 -10 10 -5 0
-10 -4 -10 -10z"/>
<path d="M6335 5083 c-11 -3 -27 -11 -35 -18 -8 -7 -27 -15 -42 -19 -24 -5
-41 -26 -22 -26 22 0 124 47 124 58 0 6 -1 11 -2 11 -2 -1 -12 -4 -23 -6z"/>
<path d="M8948 5623 c7 -3 16 -2 19 1 4 3 -2 6 -13 5 -11 0 -14 -3 -6 -6z"/>
<path d="M2685 5220 c-3 -5 -1 -10 4 -10 6 0 11 5 11 10 0 6 -2 10 -4 10 -3 0
-8 -4 -11 -10z"/>
<path d="M6990 6000 c0 -5 5 -10 10 -10 6 0 10 5 10 10 0 6 -4 10 -10 10 -5 0
-10 -4 -10 -10z"/>
<path d="M6905 5578 c-3 -7 -1 -141 3 -298 l7 -285 140 0 140 0 -5 195 c-3
107 -5 241 -5 298 l0 102 -138 0 c-101 0 -139 -3 -142 -12z"/>
<path d="M7310 4710 c-41 -6 -39 -7 28 -8 42 -1 72 2 72 8 0 11 -30 11 -100 0z"/>
<path d="M7008 4703 c7 -3 16 -2 19 1 4 3 -2 6 -13 5 -11 0 -14 -3 -6 -6z"/>
<path d="M8098 5173 c12 -2 32 -2 45 0 12 2 2 4 -23 4 -25 0 -35 -2 -22 -4z"/>
<path d="M8142 4890 c0 -14 2 -19 5 -12 2 6 2 18 0 25 -3 6 -5 1 -5 -13z"/>
<path d="M8560 4855 c0 -11 8 -13 33 -8 58 11 65 22 15 23 -36 0 -48 -4 -48
-15z"/>
<path d="M7785 4710 c-19 -8 -19 -9 2 -9 12 -1 25 4 28 9 7 12 -2 12 -30 0z"/>
<path d="M8018 4713 c17 -2 47 -2 65 0 17 2 3 4 -33 4 -36 0 -50 -2 -32 -4z"/>
<path d="M8368 4703 c6 -2 18 -2 25 0 6 3 1 5 -13 5 -14 0 -19 -2 -12 -5z"/>
<path d="M2343 5615 c0 -44 2 -61 4 -37 2 23 2 59 0 80 -2 20 -4 1 -4 -43z"/>
<path d="M2331 5474 c0 -11 3 -14 6 -6 3 7 2 16 -1 19 -3 4 -6 -2 -5 -13z"/>
<path d="M1342 5370 c0 -19 2 -27 5 -17 2 9 2 25 0 35 -3 9 -5 1 -5 -18z"/>
<path d="M4965 5840 c3 -5 8 -10 11 -10 2 0 4 5 4 10 0 6 -5 10 -11 10 -5 0
-7 -4 -4 -10z"/>
<path d="M5056 5051 c-6 -10 63 -26 72 -17 3 3 -6 6 -19 6 -19 0 -21 2 -9 10
12 8 9 10 -12 10 -15 0 -29 -4 -32 -9z"/>
<path d="M4978 5043 c7 -3 16 -2 19 1 4 3 -2 6 -13 5 -11 0 -14 -3 -6 -6z"/>
<path d="M4380 5006 c0 -8 5 -18 10 -21 6 -3 10 1 10 9 0 8 -4 18 -10 21 -5 3
-10 -1 -10 -9z"/>
<path d="M6350 3709 c0 -5 5 -7 10 -4 6 3 10 8 10 11 0 2 -4 4 -10 4 -5 0 -10
-5 -10 -11z"/>
<path d="M7168 3003 c7 -3 16 -2 19 1 4 3 -2 6 -13 5 -11 0 -14 -3 -6 -6z"/>
<path d="M9723 5213 c15 -2 37 -2 50 0 12 2 0 4 -28 4 -27 0 -38 -2 -22 -4z"/>
<path d="M518 5153 c7 -3 16 -2 19 1 4 3 -2 6 -13 5 -11 0 -14 -3 -6 -6z"/>
</g>
</svg>
